<svg xmlns="http://www.w3.org/2000/svg" xmlns:xlink="http://www.w3.org/1999/xlink">
    <symbol id="logo" viewBox="0 0 208 33" fill="none">
        <path fill="#418AF9"
            d="M47.266 20.084c.106.853.632 1.561 1.576 2.125.944.548 2.292.822 4.044.822 1.386 0 2.558-.152 3.518-.456.975-.305 1.462-.785 1.462-1.44 0-.838-.898-1.447-2.696-1.828l-5.688-1.279c-3.184-.716-4.775-2.147-4.775-4.295 0-1.538.723-2.688 2.17-3.45 1.447-.776 3.275-1.165 5.483-1.165 2.361 0 4.303.442 5.826 1.325 1.523.868 2.376 2.11 2.559 3.724l-3.358.137c-.122-.716-.633-1.317-1.531-1.805-.884-.502-2.095-.754-3.633-.754-1.157 0-2.11.16-2.855.48-.732.305-1.097.739-1.097 1.302 0 .823.86 1.417 2.581 1.782l5.324 1.166c1.797.396 3.122.929 3.975 1.599.853.655 1.28 1.576 1.28 2.764 0 1.615-.762 2.825-2.285 3.633-1.508.792-3.595 1.188-6.26 1.188-5.681 0-8.674-1.828-8.979-5.483l3.359-.092Zm32.117 5.301h-4.501l-5.232-4.707h-2.239v4.707h-3.404V8.57h3.404v9.458h2.308l5.026-4.615h4.204l-6.74 5.666 7.174 6.306Zm1.734-13.571V8.73h3.61v3.084h-3.61Zm.114 13.57v-11.97h3.404v11.97h-3.404ZM96.904 13.14c1.874 0 3.298.479 4.273 1.438.974.96 1.462 2.369 1.462 4.227v6.58h-3.404v-5.53c0-1.294-.282-2.269-.846-2.924-.563-.654-1.47-.982-2.718-.982-1.417 0-2.506.404-3.267 1.211-.762.792-1.143 1.881-1.143 3.267v4.958h-3.404V13.413h3.13v2.879c1.097-2.102 3.07-3.153 5.917-3.153Zm24.084 6.579 3.45.182c-.304 1.828-1.234 3.245-2.787 4.25-1.538 1.005-3.648 1.508-6.328 1.508-3.199 0-5.682-.739-7.448-2.216-1.752-1.493-2.628-3.511-2.628-6.055 0-2.528.861-4.538 2.582-6.03 1.721-1.494 4.135-2.24 7.242-2.24 2.513 0 4.569.495 6.169 1.485 1.614.975 2.589 2.3 2.924 3.975l-3.427.229c-.244-.838-.891-1.508-1.942-2.01-1.036-.519-2.277-.777-3.724-.777-1.995 0-3.541.495-4.638 1.485-1.081.99-1.622 2.284-1.622 3.883 0 1.6.564 2.894 1.691 3.884 1.127.99 2.734 1.485 4.821 1.485 1.568 0 2.84-.282 3.815-.845.99-.579 1.607-1.31 1.85-2.193Zm12.999-6.579c4.691.03 7.036 1.842 7.036 5.436v6.809h-3.153v-2.536c-1.249 1.873-3.335 2.81-6.259 2.81-1.798 0-3.161-.328-4.09-.983-.914-.67-1.371-1.538-1.371-2.604 0-1.188.556-2.064 1.668-2.627 1.127-.58 2.818-.937 5.072-1.074l4.729-.297v-.206c0-.73-.305-1.31-.914-1.736-.594-.442-1.5-.663-2.718-.663-2.102 0-3.351.549-3.747 1.645h-3.199c.122-.96.526-1.744 1.211-2.353.686-.61 1.508-1.036 2.468-1.28.959-.243 2.048-.357 3.267-.342Zm-1.463 10.188c1.539 0 2.772-.281 3.702-.845.929-.579 1.393-1.272 1.393-2.079v-.411l-4.295.297c-1.279.076-2.231.244-2.856.503-.624.243-.936.609-.936 1.096 0 .442.251.792.753 1.051.503.259 1.249.388 2.239.388Zm20.648-10.188c1.873 0 3.297.479 4.272 1.438.975.96 1.462 2.369 1.462 4.227v6.58h-3.404v-5.53c0-1.294-.281-2.269-.845-2.924-.564-.654-1.47-.982-2.719-.982-1.416 0-2.505.404-3.267 1.211-.761.792-1.142 1.881-1.142 3.267v4.958h-3.404V13.413h3.13v2.879c1.096-2.102 3.069-3.153 5.917-3.153Zm23.787 7.927c-.274 1.447-1.097 2.574-2.467 3.38-1.356.808-3.047 1.212-5.072 1.212-2.498 0-4.463-.54-5.895-1.622-1.431-1.082-2.147-2.628-2.147-4.638 0-1.995.708-3.534 2.125-4.615 1.431-1.097 3.366-1.645 5.802-1.645 1.98 0 3.648.396 5.004 1.188 1.371.777 2.185 1.866 2.444 3.267l-3.29.183c-.258-.655-.761-1.158-1.507-1.508-.747-.366-1.63-.548-2.651-.548-1.37 0-2.475.335-3.312 1.005-.823.655-1.234 1.546-1.234 2.673s.419 2.026 1.257 2.696c.853.655 1.987.982 3.404.982 1.066 0 1.972-.19 2.718-.571.747-.396 1.249-.93 1.508-1.6l3.313.16Zm17.701-1.028v.365h-12.519c.426 1.95 2.071 2.924 4.935 2.924 1.934 0 3.274-.449 4.02-1.348l3.313.138c-.442 1.127-1.287 2.002-2.536 2.627-1.249.61-2.848.914-4.797.914-2.59 0-4.638-.518-6.146-1.554-1.493-1.035-2.239-2.604-2.239-4.706 0-2.072.739-3.633 2.216-4.684 1.493-1.05 3.48-1.576 5.963-1.576 5.194 0 7.79 2.3 7.79 6.9Zm-7.79-4.57c-2.711 0-4.28.952-4.706 2.856h9.138c-.076-.883-.503-1.576-1.279-2.079-.762-.518-1.813-.777-3.153-.777Zm18.42-2.329c.685 0 1.309.068 1.873.205v2.97c-1.005-.122-1.774-.183-2.307-.183-1.463 0-2.536.396-3.222 1.188-.685.792-1.028 2.056-1.028 3.792v4.273h-3.404V13.413h3.153v3.062c.457-1.082 1.104-1.904 1.942-2.468.853-.579 1.85-.868 2.993-.868Z" />
        <path stroke="#418AF9" stroke-linecap="round" stroke-width="2"
            d="M12.375 22a6.897 6.897 0 0 0 4.125 1.375A6.897 6.897 0 0 0 20.625 22" />
        <path fill="#418AF9"
            d="M20.625 16.5c.76 0 1.375-.923 1.375-2.063 0-1.139-.616-2.062-1.375-2.062-.76 0-1.375.923-1.375 2.063 0 1.139.616 2.062 1.375 2.062Zm-8.25 0c.76 0 1.375-.923 1.375-2.063 0-1.139-.616-2.062-1.375-2.062-.76 0-1.375.923-1.375 2.063 0 1.139.616 2.062 1.375 2.062Z" />
        <path stroke="#418AF9" stroke-linecap="round" stroke-width="2"
            d="M30.25 19.25c0 5.185 0 7.778-1.611 9.389-1.61 1.611-4.204 1.611-9.389 1.611m-5.5 0c-5.185 0-7.778 0-9.39-1.611-1.61-1.61-1.61-4.204-1.61-9.389m11-16.5c-5.185 0-7.778 0-9.39 1.61-1.61 1.612-1.61 4.205-1.61 9.39m16.5-11c5.185 0 7.778 0 9.389 1.61 1.611 1.612 1.611 4.205 1.611 9.39"
            opacity=".5" />
    </symbol>
    <symbol id="eye" viewBox="0 0 24 24" fill="none">
        <path stroke="#767676" stroke-linecap="round" stroke-linejoin="round" stroke-width="1.5"
            d="M4.8 13.482C6.321 14.957 8.977 17 12 17c3.022 0 5.677-2.043 7.2-3.518.402-.388.604-.583.732-.965.09-.273.09-.761 0-1.034-.128-.382-.33-.577-.731-.965C17.677 9.043 15.022 7 12 7c-3.023 0-5.679 2.043-7.202 3.518-.402.389-.603.583-.73.965-.092.273-.092.761 0 1.034.127.382.328.576.73.965Z" />
        <path stroke="#767676" stroke-linecap="round" stroke-linejoin="round" stroke-width="1.5"
            d="M10.288 12c0 .92.767 1.667 1.712 1.667s1.712-.746 1.712-1.667c0-.92-.767-1.667-1.712-1.667s-1.712.746-1.712 1.667Z" />
    </symbol>
    <symbol id="bigLogo" viewBox="0 0 294 135" fill="none">
        <path fill="#418AF9"
            d="M6.029 124.993c.191 1.531 1.134 2.803 2.83 3.814 1.695.985 4.114 1.477 7.259 1.477 2.488 0 4.593-.274 6.315-.821 1.75-.546 2.625-1.408 2.625-2.583 0-1.504-1.613-2.598-4.84-3.281l-10.211-2.297c-5.714-1.285-8.572-3.855-8.572-7.71 0-2.762 1.3-4.826 3.897-6.193 2.597-1.394 5.878-2.091 9.842-2.091 4.238 0 7.724.792 10.458 2.378 2.734 1.559 4.266 3.787 4.594 6.685l-6.029.246c-.219-1.285-1.135-2.365-2.748-3.24-1.586-.902-3.76-1.353-6.52-1.353-2.079 0-3.787.287-5.127.861-1.313.547-1.969 1.326-1.969 2.338 0 1.476 1.545 2.543 4.635 3.199l9.555 2.091c3.227.711 5.605 1.668 7.136 2.871 1.532 1.176 2.297 2.83 2.297 4.963 0 2.898-1.367 5.071-4.101 6.52-2.707 1.422-6.453 2.133-11.237 2.133C5.919 135 .547 131.719 0 125.157l6.029-.164Zm57.654 9.515h-8.08l-9.391-8.449h-4.02v8.449h-6.11v-30.185h6.11v16.979h4.143l9.023-8.284h7.546l-12.099 10.171 12.878 11.319Zm3.113-24.361v-5.537h6.48v5.537h-6.48Zm.205 24.361v-21.49h6.11v21.49h-6.11Zm28.136-21.982c3.363 0 5.919.861 7.669 2.583 1.75 1.723 2.625 4.252 2.625 7.588v11.811H99.32v-9.925c0-2.324-.506-4.074-1.517-5.249-1.012-1.176-2.639-1.764-4.88-1.764-2.544 0-4.499.725-5.866 2.174-1.367 1.421-2.05 3.376-2.05 5.864v8.9h-6.11v-21.49h5.618v5.167c1.968-3.773 5.509-5.659 10.622-5.659Zm43.234 11.811 6.192.328c-.546 3.281-2.214 5.824-5.003 7.628-2.762 1.805-6.548 2.707-11.36 2.707-5.742 0-10.199-1.326-13.37-3.978-3.144-2.68-4.717-6.302-4.717-10.868 0-4.539 1.545-8.148 4.635-10.827 3.089-2.68 7.423-4.019 13.001-4.019 4.511 0 8.202.888 11.073 2.665 2.898 1.75 4.648 4.129 5.249 7.136l-6.152.41c-.437-1.503-1.599-2.706-3.486-3.609-1.859-.929-4.087-1.394-6.684-1.394-3.582 0-6.357.889-8.326 2.666-1.941 1.777-2.912 4.101-2.912 6.972 0 2.871 1.012 5.195 3.035 6.972 2.023 1.777 4.908 2.666 8.654 2.666 2.816 0 5.099-.506 6.849-1.518 1.777-1.039 2.884-2.351 3.322-3.937Zm23.333-11.811c8.421.054 12.632 3.308 12.632 9.76v12.222h-5.66v-4.552c-2.242 3.363-5.988 5.044-11.237 5.044-3.226 0-5.674-.588-7.341-1.763-1.641-1.203-2.461-2.762-2.461-4.676 0-2.132.998-3.705 2.994-4.716 2.023-1.039 5.058-1.682 9.104-1.928l8.49-.533v-.369c0-1.312-.547-2.351-1.641-3.117-1.066-.793-2.693-1.189-4.88-1.189-3.773 0-6.015.984-6.726 2.953h-5.742c.219-1.723.944-3.131 2.174-4.225 1.23-1.093 2.707-1.859 4.429-2.296 1.723-.438 3.678-.643 5.865-.615Zm-2.625 18.291c2.762 0 4.976-.506 6.644-1.518 1.668-1.039 2.502-2.283 2.502-3.732v-.738l-7.71.533c-2.297.137-4.006.438-5.127.903-1.121.437-1.681 1.093-1.681 1.968 0 .793.451 1.422 1.353 1.887.902.464 2.242.697 4.019.697Zm37.065-18.291c3.363 0 5.92.861 7.67 2.583 1.749 1.723 2.624 4.252 2.624 7.588v11.811h-6.111v-9.925c0-2.324-.505-4.074-1.517-5.249-1.012-1.176-2.638-1.764-4.88-1.764-2.543 0-4.498.725-5.865 2.174-1.367 1.421-2.051 3.376-2.051 5.864v8.9h-6.11v-21.49h5.618v5.167c1.969-3.773 5.509-5.659 10.622-5.659Zm42.701 14.231c-.492 2.597-1.969 4.62-4.429 6.069-2.434 1.45-5.469 2.174-9.105 2.174-4.484 0-8.011-.971-10.581-2.912-2.57-1.941-3.855-4.716-3.855-8.325 0-3.582 1.271-6.343 3.814-8.285 2.57-1.968 6.042-2.952 10.417-2.952 3.554 0 6.548.71 8.982 2.132 2.46 1.395 3.923 3.35 4.388 5.865l-5.906.328c-.465-1.176-1.367-2.078-2.707-2.707-1.339-.656-2.925-.984-4.757-.984-2.461 0-4.443.601-5.947 1.804-1.476 1.176-2.214 2.776-2.214 4.799 0 2.023.752 3.636 2.255 4.839 1.531 1.176 3.568 1.764 6.111 1.764 1.914 0 3.541-.342 4.88-1.026 1.34-.71 2.242-1.667 2.707-2.87l5.947.287Zm31.776-1.846v.656h-22.474c.765 3.5 3.718 5.25 8.858 5.25 3.473 0 5.879-.807 7.219-2.42l5.946.246c-.793 2.023-2.31 3.596-4.552 4.717-2.242 1.093-5.113 1.64-8.613 1.64-4.648 0-8.325-.93-11.032-2.789-2.679-1.859-4.019-4.675-4.019-8.448 0-3.719 1.326-6.521 3.978-8.408 2.68-1.886 6.248-2.829 10.704-2.829 9.324 0 13.985 4.128 13.985 12.385Zm-13.985-8.202c-4.866 0-7.683 1.709-8.448 5.126h16.405c-.137-1.586-.903-2.83-2.297-3.732-1.367-.929-3.254-1.394-5.66-1.394Zm33.066-4.183c1.23 0 2.351.123 3.363.369v5.331c-1.804-.218-3.185-.328-4.142-.328-2.625 0-4.552.711-5.783 2.133-1.23 1.421-1.845 3.691-1.845 6.808v7.669h-6.111v-21.49h5.66v5.495c.82-1.941 1.982-3.417 3.486-4.429 1.531-1.039 3.322-1.558 5.372-1.558Z" />
        <path stroke="#418AF9" stroke-linecap="round" stroke-width="4"
            d="M136.005 55.983c3.118 2.311 6.911 3.667 11.001 3.667 4.091 0 7.883-1.356 11.002-3.667" />
        <path fill="#418AF9"
            d="M158.008 41.314c2.025 0 3.667-2.463 3.667-5.501 0-3.038-1.642-5.5-3.667-5.5-2.026 0-3.667 2.462-3.667 5.5s1.641 5.5 3.667 5.5Zm-22.003 0c2.025 0 3.667-2.463 3.667-5.501 0-3.038-1.642-5.5-3.667-5.5-2.026 0-3.668 2.462-3.668 5.5s1.642 5.5 3.668 5.5Z" />
        <path stroke="#418AF9" stroke-linecap="round" stroke-width="4"
            d="M183.678 48.648c0 13.83 0 20.745-4.296 25.041-4.296 4.297-11.212 4.297-25.041 4.297m-14.669 0c-13.83 0-20.745 0-25.041-4.297-4.297-4.296-4.297-11.211-4.297-25.041m29.338-44.006c-13.83 0-20.745 0-25.041 4.296-4.297 4.296-4.297 11.211-4.297 25.041m44.007-29.337c13.829 0 20.745 0 25.041 4.296 4.296 4.296 4.296 11.211 4.296 25.041"
            opacity=".5" />
    </symbol>
    <symbol id="scan" viewBox="0 0 20 20" fill="none">
        <path fill="currentColor" fill-rule="evenodd"
            d="M4.167 6.667a.833.833 0 0 1-1.667 0V4.936c0-.633.068-.988.266-1.356.186-.35.465-.628.814-.814.368-.198.722-.266 1.356-.266h1.73a.833.833 0 0 1 0 1.667h-1.73c-.383 0-.475.018-.57.068a.303.303 0 0 0-.13.13c-.05.095-.07.188-.07.57v1.732Zm2.5 9.166a.833.833 0 1 1 0 1.667H4.936c-.633 0-.988-.068-1.356-.266a1.97 1.97 0 0 1-.814-.814c-.198-.368-.266-.722-.266-1.356v-1.73a.833.833 0 0 1 1.667 0v1.73c0 .383.018.475.068.57a.31.31 0 0 0 .13.131c.095.05.188.068.57.068h1.732Zm5.833-12.5a.833.833 0 0 0 .833.834h1.731c.383 0 .475.018.57.068.059.032.1.072.131.13.05.095.068.188.068.57v1.732a.833.833 0 1 0 1.667 0V4.936c0-.633-.068-.988-.266-1.356a1.97 1.97 0 0 0-.814-.814c-.368-.198-.722-.266-1.356-.266h-1.73a.833.833 0 0 0-.834.833Zm3.333 10a.833.833 0 0 1 1.667 0v1.731c0 .633-.068.988-.266 1.356a1.97 1.97 0 0 1-.814.814c-.368.198-.722.266-1.356.266h-1.73a.833.833 0 1 1 0-1.667h1.73c.383 0 .475-.018.57-.068a.302.302 0 0 0 .131-.13c.05-.095.068-.188.068-.57v-1.732ZM2.5 9.167a.833.833 0 1 0 0 1.666h15a.833.833 0 1 0 0-1.666h-15Z"
            clip-rule="evenodd" />
    </symbol>
    <symbol id="notification" viewBox="0 0 28 28" fill="none">
        <path stroke="#1D1D1D" stroke-linecap="round" stroke-linejoin="round" stroke-width="2"
            d="M17.5 19.833V21a3.5 3.5 0 1 1-7 0v-1.167m7 0h-7m7 0h4.189c.446 0 .67 0 .851-.06.345-.117.616-.388.732-.733.061-.182.061-.407.061-.856 0-.197 0-.296-.015-.39a1.165 1.165 0 0 0-.203-.49 2.501 2.501 0 0 0-.265-.287l-.454-.455a.782.782 0 0 1-.23-.553v-4.342a8.167 8.167 0 1 0-16.333 0v4.342a.782.782 0 0 1-.229.553l-.454.455c-.14.139-.209.209-.264.286a1.166 1.166 0 0 0-.204.491c-.015.094-.015.193-.015.39 0 .45 0 .674.06.856.117.345.389.616.734.732.18.061.404.061.85.061h4.19" />
    </symbol>
    <symbol id="settings" viewBox="0 0 28 28" fill="none">
        <path stroke="#1D1D1D" stroke-linecap="round" stroke-linejoin="round" stroke-width="2"
            d="m23.742 10.41-.428-.238a2.333 2.333 0 0 1-.914-.845c-.02-.031-.038-.064-.076-.13l-.075-.132a2.335 2.335 0 0 1-.276-1.218l.009-.496c.013-.794.02-1.192-.092-1.55a2.339 2.339 0 0 0-.486-.858c-.25-.28-.597-.48-1.29-.88l-.576-.332c-.692-.398-1.038-.598-1.405-.674a2.332 2.332 0 0 0-.984.009c-.365.082-.707.286-1.39.695l-.004.002-.413.247a2.33 2.33 0 0 1-1.19.37h-.303a2.33 2.33 0 0 1-1.06-.294c-.033-.018-.066-.038-.131-.077l-.416-.25c-.687-.413-1.031-.62-1.399-.702a2.331 2.331 0 0 0-.987-.007c-.368.077-.714.278-1.406.68l-.003.001-.57.33-.006.004c-.685.398-1.03.598-1.277.877-.22.248-.385.54-.484.857-.111.357-.105.756-.092 1.554l.009.496c0 .075.003.112.003.149a2.336 2.336 0 0 1-.352 1.198l-.076.129a2.332 2.332 0 0 1-.787.773c-.031.02-.065.037-.13.074l-.422.234c-.702.388-1.053.583-1.308.86a2.334 2.334 0 0 0-.5.852c-.119.358-.119.76-.117 1.562l.002.656c.002.797.004 1.195.122 1.55.104.315.274.604.498.847.254.276.602.469 1.298.856l.418.233.141.08a2.335 2.335 0 0 1 .863.911l.079.14a2.333 2.333 0 0 1 .267 1.21l-.008.476c-.013.8-.02 1.2.093 1.56.099.317.265.61.486.857.25.28.597.48 1.29.88l.577.332c.692.399 1.037.598 1.404.674.325.067.66.065.984-.008.366-.082.71-.287 1.394-.697l.413-.247a2.33 2.33 0 0 1 1.19-.37l.15-.001h.152a2.334 2.334 0 0 1 1.17.358l.438.264c.688.412 1.031.619 1.398.7.326.074.662.077.988.009.368-.077.715-.278 1.407-.68l.577-.335c.686-.398 1.03-.598 1.279-.877.22-.248.385-.54.483-.857.11-.355.104-.75.091-1.537l-.009-.513a2.335 2.335 0 0 1 .35-1.348c.037-.065.057-.097.076-.128a2.324 2.324 0 0 1 .915-.846l.003-.001.421-.234c.702-.389 1.054-.584 1.31-.86.225-.246.395-.536.5-.853.116-.355.116-.754.114-1.547l-.002-.67c-.002-.797-.003-1.195-.12-1.55a2.334 2.334 0 0 0-.5-.848c-.253-.275-.601-.468-1.296-.855h-.002Z" />
        <path stroke="#1D1D1D" stroke-linecap="round" stroke-linejoin="round" stroke-width="2"
            d="M9.334 14a4.667 4.667 0 1 0 9.333 0 4.667 4.667 0 0 0-9.333 0Z" />
    </symbol>
    <symbol id="home" viewBox="0 0 32 32" fill="none">
        <path stroke="currentColor" stroke-linecap="round" stroke-width="3"
            d="M20 18.667h-4m0 0h-4m4 0v-4m0 4v4m13.333-6.395V18.3c0 5.201 0 7.802-1.562 9.418-1.562 1.615-4.076 1.615-9.104 1.615h-5.334c-5.028 0-7.542 0-9.104-1.615C2.667 26.102 2.667 23.5 2.667 18.3v-2.028c0-3.051 0-4.577.692-5.842.692-1.264 1.957-2.05 4.486-3.62l2.667-1.654c2.674-1.66 4.01-2.49 5.488-2.49 1.477 0 2.814.83 5.488 2.49l2.667 1.655c2.53 1.57 3.794 2.355 4.486 3.62" />
    </symbol>
    <symbol id="chat" viewBox="0 0 32 32" fill="none">
        <path fill="currentColor"
            d="M1.667 14a1 1 0 0 0 2 0h-2Zm2.431 6.835a1 1 0 1 0-1.848.766l1.848-.766Zm14.212 8.191.722-1.22-1.72-1.02-.724 1.222 1.721 1.018Zm-5.342-1.22.723 1.22 1.72-1.018-.722-1.221-1.721 1.018Zm3.62.202c-.257.434-.92.434-1.176 0l-1.721 1.018c1.031 1.743 3.587 1.743 4.618 0l-1.72-1.018ZM14 3.667h4v-2h-4v2ZM28.333 14v1.333h2V14h-2Zm-17.93 10.322c-1.674-.029-2.55-.135-3.238-.42L6.4 25.75c1.073.444 2.295.543 3.969.572l.034-2ZM2.25 21.601A7.667 7.667 0 0 0 6.4 25.75l.765-1.848a5.667 5.667 0 0 1-3.067-3.067l-1.848.766Zm26.083-6.268c0 1.567 0 2.692-.06 3.58-.06.879-.176 1.452-.37 1.922l1.847.766c.313-.755.45-1.571.518-2.552.066-.971.065-2.176.065-3.716h-2Zm-6.702 10.989c1.674-.029 2.896-.128 3.97-.572l-.766-1.848c-.687.285-1.564.391-3.238.42l.034 2Zm6.271-5.487a5.667 5.667 0 0 1-3.067 3.067l.766 1.848a7.667 7.667 0 0 0 4.149-4.15l-1.848-.765ZM18 3.667c2.202 0 3.783 0 5.016.118 1.218.116 1.994.338 2.612.717l1.045-1.705c-.986-.604-2.103-.873-3.468-1.003-1.35-.128-3.042-.127-5.205-.127v2ZM30.333 14c0-2.163.002-3.855-.127-5.205-.13-1.365-.399-2.482-1.002-3.467l-1.706 1.045c.38.618.601 1.393.717 2.611.117 1.233.118 2.814.118 5.016h2Zm-4.705-9.498a5.665 5.665 0 0 1 1.87 1.87l1.706-1.044a7.667 7.667 0 0 0-2.531-2.531l-1.045 1.705ZM14 1.667c-2.163 0-3.855-.001-5.205.127-1.365.13-2.482.399-3.467 1.003l1.045 1.705c.618-.379 1.393-.601 2.611-.717 1.233-.117 2.814-.118 5.016-.118v-2ZM3.667 14c0-2.202 0-3.783.118-5.016.116-1.218.338-1.993.717-2.611L2.797 5.328c-.604.985-.873 2.102-1.003 3.467-.128 1.35-.127 3.042-.127 5.205h2Zm1.66-11.203a7.667 7.667 0 0 0-2.53 2.53l1.705 1.046a5.667 5.667 0 0 1 1.87-1.871L5.329 2.797Zm9.362 23.99c-.27-.458-.508-.861-.74-1.178-.243-.334-.522-.635-.91-.86l-1.005 1.729c.064.036.15.103.3.308.161.223.344.53.634 1.02l1.72-1.02Zm-4.32-.465c.585.01.956.017 1.239.049.264.029.367.072.426.107l1.006-1.73c-.39-.226-.797-.32-1.212-.365-.397-.044-.876-.051-1.425-.06l-.034 1.999Zm8.663 1.483c.29-.49.473-.796.635-1.018.15-.206.235-.273.299-.31L18.96 24.75c-.387.225-.666.526-.91.86-.23.316-.468.72-.739 1.177l1.721 1.02Zm2.565-3.483c-.549.01-1.028.017-1.425.06-.415.047-.821.14-1.212.367l1.006 1.729c.06-.035.162-.078.426-.107.283-.032.654-.04 1.24-.05l-.035-1.999Z" />
        <path stroke="currentColor" stroke-linecap="round" stroke-linejoin="round"
            stroke-width="3" d="M10.667 14.667h.012m5.31 0H16m5.321 0h.012" />
    </symbol>
    <symbol id="doctor" viewBox="0 0 32 32" fill="none">
        <path stroke="currentColor" stroke-linecap="round" stroke-width="3"
            d="M2.667 18.667c0-5.029 0-7.543 1.562-9.105C5.79 8 8.305 8 13.333 8h5.334c5.028 0 7.542 0 9.104 1.562.871.871 1.256 2.038 1.427 3.771m.135 5.334c0 5.028 0 7.542-1.562 9.104-1.562 1.562-4.076 1.562-9.104 1.562h-5.334c-5.028 0-7.542 0-9.104-1.562-.871-.87-1.256-2.038-1.427-3.771" />
        <path stroke="currentColor" stroke-width="3"
            d="M21.333 8c0-2.514 0-3.771-.78-4.552-.782-.781-2.039-.781-4.553-.781s-3.771 0-4.552.78c-.781.782-.781 2.039-.781 4.553" />
        <path stroke="currentColor" stroke-linecap="round" stroke-width="3"
            d="M18 18.667h-4m2-2v4" />
        <path stroke="currentColor" stroke-width="3"
            d="M16 24a5.333 5.333 0 1 0 0-10.667A5.333 5.333 0 0 0 16 24Z" />
    </symbol>
    <symbol id="camera" viewBox="0 0 52 52" fill="none">
        <circle cx="26" cy="26" r="26" fill="#418AF9" />
        <path fill="#fff" fill-rule="evenodd"
            d="M23.037 38h5.926c4.161 0 6.242 0 7.737-.98a5.878 5.878 0 0 0 1.635-1.606c.998-1.467.998-3.51.998-7.596 0-4.085 0-6.128-.998-7.596a5.877 5.877 0 0 0-1.635-1.605c-.96-.63-2.163-.855-4.004-.936-.878 0-1.635-.653-1.807-1.5-.258-1.268-1.393-2.181-2.71-2.181h-4.357c-1.318 0-2.452.913-2.71 2.182-.173.846-.93 1.5-1.808 1.5-1.84.08-3.043.305-4.004.935a5.875 5.875 0 0 0-1.635 1.605c-.998 1.468-.998 3.51-.998 7.596s0 6.129.998 7.596a5.88 5.88 0 0 0 1.635 1.605c1.495.981 3.576.981 7.737.981ZM26 22.364c-3.068 0-5.555 2.442-5.555 5.454 0 3.013 2.487 5.455 5.555 5.455 3.068 0 5.556-2.442 5.556-5.455 0-3.012-2.488-5.454-5.556-5.454Zm0 2.181c-1.84 0-3.333 1.466-3.333 3.273 0 1.808 1.492 3.273 3.333 3.273 1.841 0 3.333-1.465 3.333-3.273 0-1.807-1.492-3.273-3.333-3.273Zm6.296-1.09c0-.603.498-1.091 1.111-1.091h1.482A1.1 1.1 0 0 1 36 23.454a1.1 1.1 0 0 1-1.111 1.091h-1.482a1.101 1.101 0 0 1-1.11-1.09Z"
            clip-rule="evenodd" />
    </symbol>
    <symbol id="arrow_right" viewBox="0 0 24 24" fill="none">
        <path stroke="#1D1D1D" stroke-linecap="round" stroke-linejoin="round" stroke-width="2"
            d="m21 12-5-5m5 5-5 5m5-5H3" />
    </symbol>
    <symbol id="dropDown_arrow" viewBox="0 0 24 24" fill="none">
        <path stroke="#1D1D1D" stroke-linecap="round" stroke-linejoin="round" stroke-width="2"
            d="m16 10-4 4-4-4" />
    </symbol>
    <symbol id="clock" viewBox="0 0 24 24" fill="none">
        <path stroke="#1D1D1D" stroke-linecap="round" stroke-linejoin="round" stroke-opacity=".5"
            stroke-width="2" d="M12 7v5h5m-5 9a9 9 0 1 1 0-18 9 9 0 0 1 0 18Z" />
    </symbol>
    <symbol id="blueArrow" viewBox="0 0 24 24" fill="none">
        <path stroke="#418AF9" stroke-linecap="round" stroke-linejoin="round" stroke-width="2"
            d="m9 5 7 7-7 7" />
    </symbol>
    <symbol id="docChats" viewBox="0 0 32 32" fill="none">
        <path stroke="#1C274C" stroke-linecap="round" stroke-linejoin="round" stroke-width="2"
            d="M21.333 10.667h5.334c.736 0 1.333.597 1.333 1.333v14.667l-4.444-3.692a1.336 1.336 0 0 0-.853-.308H12a1.333 1.333 0 0 1-1.333-1.334v-4m10.666-6.666v-4c0-.737-.597-1.334-1.333-1.334H5.333C4.597 5.333 4 5.93 4 6.667v14.667l4.444-3.693c.24-.199.542-.308.853-.308h1.37m10.666-6.666V16c0 .736-.597 1.333-1.333 1.333h-9.333" />
    </symbol>
    <symbol id="arrow_left" viewBox="0 0 24 24" fill="none">
        <path stroke="#1D1D1D" stroke-linecap="round" stroke-linejoin="round" stroke-width="2"
            d="m15 19-7-7 7-7" />
    </symbol>
    <symbol id="send" viewBox="0 0 33 32" fill="none">
        <path fill="#418AF9"
            d="M16.03 4c6.627 0 12 5.373 12 12s-5.373 12-12 12c-6.628 0-12-5.373-12-12s5.372-12 12-12Z" />
        <path stroke="#fff" stroke-linecap="round" stroke-linejoin="round"
            d="m20.03 14.667-4-4m0 0-4 4m4-4v10.666m12-5.333c0-6.627-5.373-12-12-12-6.628 0-12 5.373-12 12s5.372 12 12 12c6.627 0 12-5.373 12-12Z" />
    </symbol>
    <symbol id="file" viewBox="0 0 32 32" fill="none">
        <g clip-path="url(#a)">
            <path stroke="#1D1D1D" stroke-linecap="round" stroke-linejoin="round"
                stroke-opacity=".5" stroke-width="2"
                d="m23.333 16.667-6.5 6.5a4.95 4.95 0 0 1-7-7l7.5-7.5a3.3 3.3 0 1 1 4.666 4.666l-7.5 7.5a1.65 1.65 0 0 1-2.333-2.333l6.5-6.5" />
        </g>
        <defs>
            <clipPath id="a">
                <path fill="#fff" d="M32 16 16 32 0 16 16 0z" />
            </clipPath>
        </defs>
    </symbol>
    <symbol id="addUser" viewBox="0 0 28 28" fill="none">
        <path stroke="#1D1D1D" stroke-linecap="round" stroke-linejoin="round" stroke-width="2"
            d="M17.5 22.167c0-2.578-3.134-4.667-7-4.667s-7 2.09-7 4.667m18.667-3.5v-3.5m0 0v-3.5m0 3.5h-3.5m3.5 0h3.5M10.5 14a4.667 4.667 0 1 1 0-9.333 4.667 4.667 0 0 1 0 9.333Z" />
    </symbol>
    <symbol id="search" viewBox="0 0 24 24" fill="none">
        <path stroke="#1D1D1D" stroke-linecap="round" stroke-linejoin="round" stroke-opacity=".5"
            stroke-width="2" d="m15 15 6 6m-11-4a7 7 0 1 1 0-14 7 7 0 0 1 0 14Z" />
    </symbol>
    <symbol id="verify" viewBox="0 0 24 24" file="none">
        <path fill="#8D93A5"
            d="m21.56 10.738-1.36-1.58c-.26-.3-.47-.86-.47-1.26v-1.7c0-1.06-.87-1.93-1.93-1.93h-1.7c-.39 0-.96-.21-1.26-.47l-1.58-1.36c-.69-.59-1.82-.59-2.52 0l-1.57 1.37c-.3.25-.87.46-1.26.46H6.18c-1.06 0-1.93.87-1.93 1.93v1.71c0 .39-.21.95-.46 1.25l-1.35 1.59c-.58.69-.58 1.81 0 2.5l1.35 1.59c.25.3.46.86.46 1.25v1.71c0 1.06.87 1.93 1.93 1.93h1.73c.39 0 .96.21 1.26.47l1.58 1.36c.69.59 1.82.59 2.52 0l1.58-1.36c.3-.26.86-.47 1.26-.47h1.7c1.06 0 1.93-.87 1.93-1.93v-1.7c0-.39.21-.96.47-1.26l1.36-1.58c.58-.69.58-1.83-.01-2.52Zm-5.4-.63-4.83 4.83a.75.75 0 0 1-1.06 0l-2.42-2.42a.754.754 0 0 1 0-1.06c.29-.29.77-.29 1.06 0l1.89 1.89 4.3-4.3c.29-.29.77-.29 1.06 0 .29.29.29.77 0 1.06Z" />
    </symbol>
</svg>