<svg xmlns="http://www.w3.org/2000/svg" width="32" height="32" fill="none" viewBox="0 0 32 32">
    <path fill="#fff" d="M0 0h32v32H0z"/>
    <path stroke="#418AF9" stroke-linecap="round" stroke-width="2" d="M12 21.333a6.688 6.688 0 0 0 4 1.334 6.689 6.689 0 0 0 4-1.334"/>
    <path fill="#418AF9" d="M20 16c.736 0 1.333-.895 1.333-2s-.597-2-1.333-2-1.333.895-1.333 2 .597 2 1.333 2Zm-8 0c.736 0 1.333-.895 1.333-2s-.597-2-1.333-2-1.333.895-1.333 2 .597 2 1.333 2Z"/>
    <path stroke="#418AF9" stroke-linecap="round" stroke-width="2" d="M29.333 18.667c0 5.028 0 7.542-1.562 9.104-1.562 1.562-4.076 1.562-9.104 1.562m-5.334 0c-5.028 0-7.542 0-9.104-1.562-1.562-1.562-1.562-4.076-1.562-9.104m10.666-16c-5.028 0-7.542 0-9.104 1.562-1.562 1.562-1.562 4.076-1.562 9.104m16-10.666c5.028 0 7.542 0 9.104 1.562 1.562 1.562 1.562 4.076 1.562 9.104" opacity=".5"/>
</svg>
  